<svg version="1.0" xmlns="http://www.w3.org/2000/svg" width="1000.000000pt" height="1000.000000pt"
     viewBox="0 0 1000.000000 1000.000000" preserveAspectRatio="xMidYMid meet">
     <style type="text/css">
	    .sellix{fill:#8C98A4;}
	    .sellix2{fill:#909DA5;}
    </style>

    <g class="sellix" transform="translate(0.000000,1000.000000) scale(0.100000,-0.100000)"
       fill="#603be9" stroke="none">
        <path d="M1335 9985 c-339 -54 -621 -200 -871 -449 -253 -253 -397 -535 -450
-881 -20 -134 -20 -7176 0 -7310 53 -346 197 -628 450 -881 253 -253 535 -397
881 -450 134 -20 7176 -20 7310 0 346 53 628 197 881 450 253 253 397 535 450
881 11 75 14 670 14 3655 0 2985 -3 3580 -14 3655 -53 346 -197 628 -450 881
-253 253 -535 397 -881 450 -128 20 -7196 19 -7320 -1z"/>
    </g>
    <g transform="translate(0.000000,1000.000000) scale(0.100000,-0.100000)"
       fill="white" stroke="none">
        <path d="M4775 8709 c-224 -17 -481 -58 -710 -115 -920 -228 -1557 -759 -1800
-1499 -80 -242 -109 -441 -109 -735 1 -380 60 -651 200 -920 72 -138 160 -255
297 -392 260 -262 494 -409 892 -561 263 -100 624 -214 980 -307 88 -23 234
-62 324 -87 90 -24 167 -41 171 -36 4 4 31 109 59 233 67 287 70 300 79 300 4
0 129 -96 277 -213 149 -117 492 -387 762 -600 271 -214 495 -393 499 -398 3
-6 4 -13 1 -15 -10 -10 -1979 -665 -1984 -660 -3 3 17 103 46 222 28 119 48
220 45 225 -3 5 -13 9 -22 9 -26 0 -242 56 -389 101 -272 83 -550 194 -848
339 -353 173 -597 325 -867 542 -53 43 -103 78 -110 78 -14 0 -871 -1736 -876
-1774 -2 -17 20 -37 105 -97 253 -179 464 -305 738 -439 707 -345 1515 -562
2305 -620 176 -13 649 -13 821 0 529 41 1047 177 1428 376 467 243 825 611
1002 1029 119 282 169 548 169 906 0 394 -56 670 -191 944 -76 156 -166 279
-314 433 -198 207 -381 347 -600 459 -126 64 -421 181 -675 268 -395 134
-1088 334 -1099 317 -3 -6 -33 -126 -66 -266 -33 -141 -62 -256 -65 -256 -3 0
-161 122 -350 272 -190 149 -534 420 -765 601 -231 181 -424 334 -430 339 -6
6 -5 12 4 17 25 16 1979 666 1985 660 3 -3 -24 -128 -59 -279 -36 -150 -65
-276 -65 -280 0 -4 57 -22 128 -40 250 -65 676 -216 997 -355 144 -62 524
-249 650 -319 55 -31 104 -55 110 -52 6 2 77 143 157 312 543 1142 698 1471
698 1486 0 19 -161 116 -370 222 -670 340 -1524 572 -2300 626 -168 11 -704
11 -865 -1z"/>
    </g>
</svg>
